<?xml version="1.0" standalone="no"?>
<!DOCTYPE svg PUBLIC "-//W3C//DTD SVG 20010904//EN"
 "http://www.w3.org/TR/2001/REC-SVG-20010904/DTD/svg10.dtd">
<svg version="1.0" xmlns="http://www.w3.org/2000/svg"
 width="300.000000pt" height="297.000000pt" viewBox="0 0 300.000000 297.000000"
 preserveAspectRatio="xMidYMid meet">
<metadata>
Created by potrace 1.10, written by Peter Selinger 2001-2011
</metadata>
<g transform="translate(0.000000,297.000000) scale(0.050000,-0.050000)"
fill="#a52a2a" stroke="none">
<path d="M2860 5648 c-721 -76 -1251 -319 -1721 -787 -1745 -1739 -445 -4695
2021 -4594 2246 91 3388 2746 1917 4455 -531 616 -1463 1006 -2217 926z m271
-517 c49 -49 49 -50 49 -467 l0 -419 105 -20 c129 -26 120 -33 184 130 82 205
99 225 191 225 173 0 174 -83 3 -480 -93 -216 -124 -234 -299 -180 -68 22
-183 45 -256 52 -189 20 -208 45 -208 282 0 183 -1 187 -45 178 -204 -42 -257
-59 -248 -79 129 -316 133 -331 111 -380 -42 -92 -170 -109 -230 -30 -33 43
-208 478 -208 517 0 95 227 201 495 231 l125 14 0 99 0 100 -105 -14 c-663
-90 -1251 -522 -1529 -1125 -75 -163 -166 -489 -166 -598 l0 -67 105 -1 c261
-3 335 -35 335 -146 0 -111 -43 -133 -256 -133 l-190 0 13 -115 c11 -102 65
-344 81 -359 3 -4 71 21 152 54 211 87 302 76 330 -41 19 -78 -48 -144 -208
-207 -78 -30 -146 -62 -151 -71 -12 -18 113 -229 196 -333 l58 -72 133 132
c145 144 209 165 282 92 72 -72 52 -139 -80 -270 -146 -144 -146 -150 -15
-245 277 -202 695 -364 940 -365 l75 0 0 641 0 641 49 49 c33 33 72 49 117 49
468 0 703 620 361 952 -494 480 -1258 -224 -817 -752 103 -123 95 -164 -62
-322 l-132 -133 57 -40 c31 -22 96 -59 143 -83 138 -70 140 -105 23 -387 -134
-326 -209 -389 -318 -271 -61 65 -56 90 67 380 l32 75 -57 29 c-366 190 -647
727 -614 1172 26 343 40 299 -123 370 -242 105 -259 135 -178 318 107 241 347
532 438 532 160 0 174 -151 29 -318 -58 -67 -125 -157 -149 -200 l-45 -78 158
-64 c239 -96 248 -114 179 -343 -78 -255 -29 -607 114 -823 l52 -78 66 64 66
64 -57 114 c-119 241 -121 508 -3 745 l56 114 -136 139 c-144 147 -163 197
-105 280 62 88 155 62 310 -88 l137 -133 66 41 c316 193 795 112 1043 -178
389 -455 173 -1190 -395 -1342 l-92 -24 0 -326 c0 -371 -12 -352 185 -301 112
29 111 22 33 224 -76 196 -67 223 105 314 594 315 734 1060 298 1588 -120 145
-114 164 125 403 222 222 274 246 354 166 74 -74 53 -140 -89 -281 -154 -153
-149 -125 -51 -287 360 -592 186 -1389 -381 -1753 -115 -73 -110 -59 -59 -160
l41 -79 54 33 c30 19 120 87 200 151 156 126 219 142 285 76 170 -170 -377
-572 -915 -673 l-185 -35 0 -86 c0 -101 27 -107 267 -56 531 112 1067 508
1296 956 l39 76 -112 49 c-61 27 -119 49 -129 49 -39 0 -141 106 -141 147 0
142 117 167 340 72 79 -34 147 -59 150 -55 15 15 70 256 82 361 l14 115 -190
0 c-245 0 -259 13 -279 257 -8 101 -37 244 -68 340 -61 184 -52 248 41 283
138 52 228 -106 299 -525 13 -74 14 -75 104 -75 l92 0 -15 115 c-95 763 -683
1426 -1439 1624 -222 58 -293 167 -172 264 152 123 828 -179 1202 -536 1315
-1257 659 -3479 -1121 -3799 -2298 -412 -3592 2570 -1723 3971 430 322 1255
551 1414 392z"/>
</g>
</svg>
